<?xml version="1.0" encoding="utf-8"?>
<!-- Generator: Adobe Illustrator 24.2.0, SVG Export Plug-In . SVG Version: 6.00 Build 0)  -->
<svg version="1.0" id="Layer_1" xmlns="http://www.w3.org/2000/svg" xmlns:xlink="http://www.w3.org/1999/xlink" x="0px" y="0px"
	 viewBox="0 0 422.5 137.3" style="enable-background:new 0 0 422.5 137.3;" xml:space="preserve">
<style type="text/css">
	.st0{fill:#333333;}
	.st1{fill:#5C5C5C;}
	.st2{fill:url(#SVGID_1_);}
	.st3{fill-rule:evenodd;clip-rule:evenodd;fill:url(#SVGID_2_);}
	.st4{fill-rule:evenodd;clip-rule:evenodd;fill:url(#SVGID_3_);}
</style>
<g>
	<g>
		<path class="st0" d="M194.2,24.3c0.1-0.3,0.3-0.6,0.5-0.9c0.3-0.2,0.6-0.4,1-0.4h9.8c0.7,0,1.1,0.4,1.2,1.1l3.6,25.7l11.8-25.7
			c0.4-0.7,0.9-1.1,1.6-1.1h9.7c0.3,0,0.6,0.1,0.9,0.4c0.2,0.2,0.3,0.5,0.3,0.9c-0.4,6.6-0.8,13.2-1.1,19.8
			c-0.3,6.5-0.7,13.1-1.1,19.8l0,0.1c-0.1,0.7-0.6,1.1-1.4,1.1h-8c-0.9,0-1.3-0.4-1.2-1.2l1-21.9L213,64c-0.1,0.2-0.2,0.4-0.5,0.7
			c-0.3,0.3-0.5,0.4-0.8,0.4h-7.4c-0.2,0-0.4-0.1-0.7-0.4c-0.2-0.3-0.3-0.5-0.3-0.7l-2.9-22l-5.9,21.8c-0.2,0.8-0.7,1.2-1.6,1.2h-8
			c-0.8,0-1.2-0.4-1-1.2L194.2,24.3z"/>
		<path class="st0" d="M241.2,44.1c0.3-2,0.9-3.9,1.7-5.8c0.8-1.8,1.8-3.6,3-5.2c1.2-1.6,2.6-3.1,4.1-4.4c1.5-1.3,3.2-2.4,4.9-3.4
			c1.8-0.9,3.6-1.7,5.5-2.2c1.9-0.5,3.9-0.8,5.9-0.8c2,0,3.9,0.3,5.6,0.8c1.8,0.5,3.4,1.2,4.8,2.2c1.5,0.9,2.7,2.1,3.9,3.4
			c1.1,1.3,2,2.8,2.7,4.4c0.7,1.6,1.1,3.3,1.4,5.2c0.2,1.8,0.2,3.8-0.1,5.8c-0.3,2-0.9,3.9-1.7,5.8c-0.8,1.8-1.8,3.6-3,5.2
			c-1.2,1.6-2.5,3-4.1,4.4c-1.5,1.3-3.2,2.4-4.9,3.4c-1.8,0.9-3.6,1.7-5.5,2.2c-1.9,0.5-3.9,0.8-5.9,0.8c-2,0-3.9-0.3-5.6-0.8
			s-3.4-1.2-4.8-2.2c-1.5-0.9-2.7-2.1-3.8-3.4c-1.1-1.3-2-2.8-2.7-4.4c-0.7-1.6-1.1-3.3-1.4-5.2C240.8,48,240.8,46.1,241.2,44.1z
			 M252.1,44.1c-0.2,1.6-0.2,3,0.1,4.4c0.3,1.4,0.9,2.5,1.7,3.6c0.8,1,1.8,1.8,3,2.4c1.2,0.6,2.6,0.9,4.2,0.9c1.6,0,3-0.3,4.4-0.9
			c1.4-0.6,2.7-1.4,3.8-2.4c1.1-1,2-2.2,2.8-3.6s1.2-2.8,1.5-4.4c0.2-1.5,0.2-3-0.1-4.4c-0.3-1.4-0.9-2.6-1.7-3.6
			c-0.8-1-1.8-1.8-3-2.4c-1.2-0.6-2.6-0.9-4.2-0.9c-1.6,0-3,0.3-4.4,0.9c-1.4,0.6-2.6,1.4-3.8,2.4c-1.1,1-2,2.2-2.8,3.6
			C252.9,41.1,252.4,42.5,252.1,44.1z"/>
		<path class="st0" d="M294.7,24.3c0.1-0.3,0.2-0.6,0.5-0.9c0.2-0.2,0.6-0.4,1-0.4h9.3c0.3,0,0.5,0.1,0.8,0.2
			c0.3,0.1,0.5,0.4,0.6,0.7c1.8,3.9,3.6,7.7,5.3,11.4c1.8,3.8,3.5,7.6,5.4,11.4l3.6-22.7c0.1-0.3,0.3-0.6,0.6-0.8
			c0.3-0.2,0.5-0.3,0.8-0.3h8.1c0.4,0,0.7,0.1,0.9,0.3c0.2,0.2,0.3,0.5,0.3,0.9L325.4,64c-0.1,0.4-0.2,0.7-0.5,0.8
			c-0.3,0.2-0.6,0.3-1,0.3h-9c-0.2,0-0.4-0.1-0.6-0.3c-0.2-0.2-0.3-0.4-0.5-0.7c-1.9-4.2-3.7-8.3-5.5-12.3
			c-1.8-4.1-3.7-8.2-5.5-12.3L299,63.8c-0.1,0.4-0.2,0.7-0.4,0.9c-0.2,0.2-0.6,0.3-1.1,0.3h-8c-0.4,0-0.7-0.1-0.9-0.4
			c-0.2-0.2-0.2-0.5-0.2-0.9L294.7,24.3z"/>
		<path class="st0" d="M338.7,24.3c0.1-0.4,0.2-0.7,0.5-0.9c0.3-0.2,0.6-0.3,1-0.3h30.5c0.3,0,0.6,0.1,0.9,0.3
			c0.2,0.2,0.3,0.5,0.3,0.9l-1.1,7c-0.1,0.3-0.2,0.7-0.5,1c-0.3,0.3-0.6,0.5-1.1,0.5h-9.8l-4.9,31c-0.1,0.3-0.2,0.6-0.5,0.9
			c-0.3,0.3-0.6,0.4-1,0.4h-8.3c-0.3,0-0.6-0.1-0.8-0.4c-0.2-0.3-0.3-0.6-0.3-0.9l4.9-31h-9.7c-0.4,0-0.7-0.1-0.9-0.4
			c-0.2-0.2-0.3-0.6-0.2-1.1L338.7,24.3z"/>
		<path class="st0" d="M391.8,38.6l9.2-14.6c0.1-0.2,0.3-0.4,0.4-0.5c0.1-0.1,0.2-0.2,0.3-0.2c0.1,0,0.2-0.1,0.3-0.1
			c0.1,0,0.2,0,0.3-0.1h10.9c0.1,0,0.2,0,0.3,0.1c0.1,0.1,0.1,0.2,0.1,0.3c0,0.2-0.2,0.4-0.5,0.7l-17.2,23.8l-2.5,15.8
			c-0.1,0.9-0.6,1.3-1.5,1.3h-8.5c-0.4,0-0.6-0.1-0.8-0.4c-0.2-0.2-0.2-0.6-0.2-1l2.5-15.9l-9.6-23.7c-0.2-0.2-0.3-0.5-0.3-0.7
			c0-0.1,0.1-0.2,0.2-0.3c0.1-0.1,0.2-0.1,0.3-0.1h10.9c0.1,0,0.2,0.1,0.3,0.1c0.1,0,0.1,0,0.2,0.1c0.1,0,0.1,0.1,0.2,0.2
			c0.1,0.1,0.1,0.3,0.2,0.5L391.8,38.6z"/>
		<path class="st1" d="M186.4,73.4c0.1-0.3,0.3-0.6,0.5-0.9c0.3-0.2,0.6-0.4,1-0.4h9.8c0.7,0,1.1,0.4,1.2,1.1l3.6,25.7l11.8-25.7
			c0.4-0.7,0.9-1.1,1.6-1.1h9.7c0.3,0,0.6,0.1,0.9,0.4c0.2,0.2,0.3,0.5,0.3,0.9c-0.4,6.6-0.8,13.2-1.1,19.8
			c-0.3,6.5-0.7,13.1-1.1,19.8l0,0.1c-0.1,0.7-0.6,1.1-1.4,1.1h-8c-0.9,0-1.3-0.4-1.2-1.2l1-21.9l-9.9,22c-0.1,0.2-0.2,0.4-0.5,0.7
			c-0.3,0.3-0.5,0.4-0.8,0.4h-7.4c-0.2,0-0.4-0.1-0.7-0.4c-0.2-0.3-0.3-0.5-0.3-0.7l-2.9-22l-5.9,21.8c-0.2,0.8-0.7,1.2-1.6,1.2h-8
			c-0.8,0-1.2-0.4-1-1.2L186.4,73.4z"/>
		<path class="st1" d="M233.4,93.3c0.3-2,0.9-3.9,1.7-5.8c0.8-1.8,1.8-3.6,3-5.2c1.2-1.6,2.6-3.1,4.1-4.4c1.5-1.3,3.2-2.4,4.9-3.4
			c1.8-0.9,3.6-1.7,5.5-2.2c1.9-0.5,3.9-0.8,5.9-0.8c2,0,3.9,0.3,5.6,0.8c1.8,0.5,3.4,1.2,4.8,2.2c1.5,0.9,2.7,2.1,3.9,3.4
			c1.1,1.3,2,2.8,2.7,4.4c0.7,1.6,1.1,3.3,1.4,5.2c0.2,1.8,0.2,3.8-0.1,5.8c-0.3,2-0.9,3.9-1.7,5.8c-0.8,1.8-1.8,3.6-3,5.2
			c-1.2,1.6-2.5,3-4.1,4.4c-1.5,1.3-3.2,2.4-4.9,3.4c-1.8,0.9-3.6,1.7-5.5,2.2c-1.9,0.5-3.9,0.8-5.9,0.8c-2,0-3.9-0.3-5.6-0.8
			c-1.8-0.5-3.4-1.2-4.8-2.2s-2.7-2.1-3.8-3.4c-1.1-1.3-2-2.8-2.7-4.4c-0.7-1.6-1.1-3.3-1.4-5.2C233,97.2,233.1,95.3,233.4,93.3z
			 M244.3,93.2c-0.2,1.6-0.2,3,0.1,4.4c0.3,1.4,0.9,2.5,1.7,3.6c0.8,1,1.8,1.8,3,2.4c1.2,0.6,2.6,0.9,4.2,0.9c1.6,0,3-0.3,4.4-0.9
			c1.4-0.6,2.7-1.4,3.8-2.4c1.1-1,2-2.2,2.8-3.6c0.7-1.4,1.2-2.8,1.5-4.4c0.2-1.5,0.2-3-0.1-4.4c-0.3-1.4-0.9-2.6-1.7-3.6
			c-0.8-1-1.8-1.8-3-2.4c-1.2-0.6-2.6-0.9-4.2-0.9c-1.6,0-3,0.3-4.4,0.9c-1.4,0.6-2.6,1.4-3.8,2.4c-1.1,1-2,2.2-2.8,3.6
			C245.1,90.2,244.6,91.7,244.3,93.2z"/>
		<path class="st1" d="M286.7,73.5c0.1-0.4,0.2-0.7,0.5-0.9c0.3-0.2,0.6-0.4,1-0.4H307c1.7,0,3.2,0.3,4.6,0.9
			c1.4,0.6,2.5,1.5,3.5,2.6c0.9,1.1,1.6,2.4,2,3.9c0.4,1.5,0.5,3.1,0.2,4.8c-0.2,1.4-0.7,2.7-1.3,4c-0.6,1.2-1.4,2.3-2.4,3.3
			c1.2,1.2,2,2.7,2.5,4.4c0.5,1.7,0.6,3.5,0.3,5.5c-0.3,1.7-0.9,3.3-1.8,4.9c-0.9,1.5-2,2.9-3.3,4.1c-1.3,1.2-2.8,2.1-4.4,2.8
			c-1.6,0.7-3.2,1-4.9,1h-20.5c-0.4,0-0.7-0.1-0.9-0.3c-0.2-0.2-0.3-0.5-0.2-0.9L286.7,73.5z M305.2,101.1c0.1-0.6,0.1-1.1-0.1-1.7
			c-0.1-0.6-0.4-1.1-0.7-1.5c-0.3-0.4-0.7-0.8-1.2-1.1c-0.5-0.3-1.1-0.4-1.7-0.4h-7.5l-1.5,9.5h7.5c0.6,0,1.2-0.1,1.8-0.4
			c0.6-0.3,1.1-0.6,1.6-1.1c0.5-0.4,0.9-0.9,1.2-1.5C304.9,102.3,305.1,101.7,305.2,101.1z M306.3,84.6c0.1-0.6,0.1-1.1-0.1-1.6
			c-0.1-0.5-0.4-0.9-0.7-1.3c-0.3-0.4-0.7-0.7-1.2-0.9c-0.5-0.2-1.1-0.3-1.7-0.3h-6.1l-1.3,8.2h6c0.6,0,1.3-0.1,1.8-0.3
			c0.6-0.2,1.1-0.5,1.5-0.8c0.4-0.4,0.8-0.8,1.1-1.3C306,85.8,306.2,85.3,306.3,84.6z"/>
		<path class="st1" d="M326.8,73.4c0.1-0.3,0.2-0.6,0.5-0.9c0.2-0.2,0.6-0.4,1-0.4h8.3c0.3,0,0.6,0.1,0.9,0.3
			c0.3,0.2,0.4,0.5,0.3,0.9l-6.3,39.6c-0.1,0.8-0.7,1.2-1.6,1.2h-8.3c-0.8,0-1.2-0.4-1-1.2L326.8,73.4z"/>
		<path class="st1" d="M345.9,73.4c0.1-0.3,0.2-0.6,0.5-0.9c0.3-0.2,0.6-0.4,1-0.4h8.4c0.3,0,0.6,0.1,0.8,0.3
			c0.2,0.2,0.3,0.5,0.3,0.9l-4.9,30.8h15.6c0.3,0,0.6,0.1,0.8,0.3c0.2,0.2,0.3,0.5,0.2,0.9l-1.2,7.4c-0.1,0.3-0.2,0.6-0.5,0.9
			c-0.3,0.3-0.6,0.4-1,0.4h-25.3c-0.8,0-1.2-0.4-1-1.2L345.9,73.4z"/>
		<path class="st1" d="M380.3,73.5c0.1-0.4,0.2-0.7,0.5-0.9c0.3-0.2,0.6-0.4,1-0.4h28.1c0.4,0,0.7,0.1,0.9,0.4
			c0.2,0.2,0.2,0.6,0.2,1l-1.1,7c-0.1,0.3-0.2,0.6-0.5,0.9c-0.3,0.3-0.6,0.4-1.1,0.4h-18.4l-1.1,7h14.2c0.4,0,0.6,0.1,0.9,0.3
			c0.2,0.2,0.3,0.5,0.2,0.8l-1,6.1c0,0.3-0.2,0.5-0.4,0.8c-0.2,0.2-0.6,0.4-1,0.4h-14.2l-1.1,7.2h19c0.8,0,1.2,0.4,1.1,1.3l-1.1,7.1
			c0,0.2-0.1,0.4-0.3,0.5c-0.2,0.5-0.6,0.8-1.3,0.8H375c-0.4,0-0.7-0.1-0.9-0.3c-0.2-0.2-0.3-0.5-0.2-0.9L380.3,73.5z"/>
	</g>
	<g>
		<g>
			<radialGradient id="SVGID_1_" cx="29.7474" cy="93.3794" r="21.112" gradientUnits="userSpaceOnUse">
				<stop  offset="0.3967" style="stop-color:#ED3432"/>
				<stop  offset="1" style="stop-color:#E11F26"/>
			</radialGradient>
			<path class="st2" d="M50.5,93.4c0,11.9-9.3,21.5-20.7,21.5C18.3,114.9,9,105.2,9,93.4c0-11.9,9.3-21.5,20.7-21.5
				C41.2,71.9,50.5,81.5,50.5,93.4z"/>
			<radialGradient id="SVGID_2_" cx="71.6655" cy="68.637" r="40.8097" gradientUnits="userSpaceOnUse">
				<stop  offset="0.3967" style="stop-color:#ED3432"/>
				<stop  offset="1" style="stop-color:#E11F26"/>
			</radialGradient>
			<path class="st3" d="M74.7,35.2c-2.1-7.1-5.5-12.6-17.2-12.7c-11-0.2-22,10-20.2,24.6c1.9,15.3,13.4,12.7,22.8,19.1
				c12,8.1,3.5,20.8,6.1,34.5c4.4,22.5,41.4,17.1,39.9-7.4c0-0.4,0,0.4,0,0c0-7.1-4.5-13.2-10.7-15.6c-0.1-0.1-0.3-0.2-0.4-0.2
				c-0.2-0.1-0.4-0.3-0.7-0.4c-0.4-0.2-0.7-0.3-1-0.4c-0.6-0.3-1.1-0.5-1.7-0.7l-7.9-4c0.5,0.3,1.1,0.7,1.8,1c0.1,0,0.1,0.1,0.3,0.1
				c0.4,0.1,0.8,0.4,0,0c-0.1,0,0,0-0.1,0c-0.1,0-0.1-0.1-0.1-0.1c-1-0.5-0.5-0.3-2.2-1.2l0.5,0.2c-8.6-5.5-8.1-17.5-8.3-28.1
				C75.5,43.7,75.9,39,74.7,35.2z"/>
			<radialGradient id="SVGID_3_" cx="128.5648" cy="68.637" r="40.8097" gradientUnits="userSpaceOnUse">
				<stop  offset="0.3967" style="stop-color:#ED3432"/>
				<stop  offset="1" style="stop-color:#E11F26"/>
			</radialGradient>
			<path class="st4" d="M131.6,35.2c-2-7.1-5.6-12.6-17.2-12.7c-11-0.2-22,10-20.2,24.6c1.9,15.3,13.4,12.7,22.8,19.1
				c12,8.1,3.5,20.8,6.1,34.5c4.4,22.5,41.4,17.1,39.9-7.4c0-0.4,0,0.4,0,0c0-7.1-4.4-13.2-10.7-15.6c-0.1-0.1-0.3-0.2-0.4-0.2
				c-0.2-0.1-0.4-0.3-0.7-0.4c-0.4-0.2-0.7-0.3-1-0.4c-0.6-0.3-1.1-0.5-1.7-0.7l-7.9-4c0.6,0.3,1.1,0.7,1.8,1c0.1,0,0.2,0.1,0.3,0.1
				c0.4,0.1,0.8,0.4,0,0c-0.1,0,0,0-0.1,0c-0.1,0-0.1-0.1-0.2-0.1c-1-0.5-0.5-0.3-2.2-1.2l0.5,0.2c-8.6-5.5-8.1-17.5-8.3-28.1
				C132.4,43.7,132.6,38.6,131.6,35.2z"/>
		</g>
	</g>
</g>
</svg>
